<?xml version="1.0" encoding="UTF-8"?>
<svg xmlns="http://www.w3.org/2000/svg" xmlns:xlink="http://www.w3.org/1999/xlink"
     width="110" height="40" viewBox="0 0 110 40">
<defs>
</defs>
<path d="M41 700H341V600H151V415H302V315H151V100H341V0H41Z" fill="#98dbc6" transform="translate(4.93,30.0) scale(0.03,-0.03)" />
<path d="M41 700H209Q291 700 332.0 656.0Q373 612 373 527V173Q373 88 332.0 44.0Q291 0 209 0H41ZM207 100Q234 100 248.5 116.0Q263 132 263 168V532Q263 568 248.5 584.0Q234 600 207 600H151V100Z" fill="#66A5AD" transform="translate(15.819999999999999,30.0) scale(0.03,-0.03)" />
<path d="M37 166V700H147V158Q147 122 161.5 106.0Q176 90 203 90Q230 90 244.5 106.0Q259 122 259 158V700H365V166Q365 81 323.0 35.5Q281 -10 201 -10Q121 -10 79.0 35.5Q37 81 37 166Z" fill="#66A5AD" transform="translate(28.0,30.0) scale(0.03,-0.03)" />
<path d="M34 162V538Q34 620 75.5 665.0Q117 710 196 710Q275 710 316.5 665.0Q358 620 358 538V464H254V545Q254 610 199 610Q144 610 144 545V154Q144 90 199 90Q254 90 254 154V261H358V162Q358 80 316.5 35.0Q275 -10 196 -10Q117 -10 75.5 35.0Q34 80 34 162Z" fill="#66A5AD" transform="translate(40.06,30.0) scale(0.03,-0.03)" />
<path d="M126 700H275L389 0H279L259 139V137H134L114 0H12ZM246 232 197 578H195L147 232Z" fill="#66A5AD" transform="translate(51.550000000000004,30.0) scale(0.03,-0.03)" />
<path d="M127 600H12V700H352V600H237V0H127Z" fill="#66A5AD" transform="translate(63.580000000000005,30.0) scale(0.03,-0.03)" />
<path d="M41 700H151V0H41Z" fill="#66A5AD" transform="translate(74.5,30.0) scale(0.03,-0.03)" />
<path d="M33 166V534Q33 618 76.0 664.0Q119 710 200 710Q281 710 324.0 664.0Q367 618 367 534V166Q367 82 324.0 36.0Q281 -10 200 -10Q119 -10 76.0 36.0Q33 82 33 166ZM257 159V541Q257 610 200 610Q143 610 143 541V159Q143 90 200 90Q257 90 257 159Z" fill="#66A5AD" transform="translate(80.26,30.0) scale(0.03,-0.03)" />
<path d="M41 700H179L286 281H288V700H386V0H273L141 511H139V0H41Z" fill="#66A5AD" transform="translate(92.26,30.0) scale(0.03,-0.03)" />
</svg>
