<?xml version="1.0" encoding="UTF-8"?>
<svg xmlns="http://www.w3.org/2000/svg" xmlns:xlink="http://www.w3.org/1999/xlink"
     width="150" height="40" viewBox="0 0 150 40">
<defs>
</defs>
<path d="M127 600H12V700H352V600H237V0H127Z" fill="#98DBC6" transform="translate(8.715000000000003,30.0) scale(0.03,-0.03)" />
<path d="M41 700H341V600H151V415H302V315H151V100H341V0H41Z" fill="#98DBC6" transform="translate(19.635000000000005,30.0) scale(0.03,-0.03)" />
<path d="M34 162V538Q34 620 75.5 665.0Q117 710 196 710Q275 710 316.5 665.0Q358 620 358 538V464H254V545Q254 610 199 610Q144 610 144 545V154Q144 90 199 90Q254 90 254 154V261H358V162Q358 80 316.5 35.0Q275 -10 196 -10Q117 -10 75.5 35.0Q34 80 34 162Z" fill="#98DBC6" transform="translate(30.525000000000006,30.0) scale(0.03,-0.03)" />
<path d="M41 700H151V415H269V700H379V0H269V315H151V0H41Z" fill="#98DBC6" transform="translate(42.01500000000001,30.0) scale(0.03,-0.03)" />
<path d="M41 700H179L286 281H288V700H386V0H273L141 511H139V0H41Z" fill="#98DBC6" transform="translate(54.61500000000001,30.0) scale(0.03,-0.03)" />
<path d="M33 166V534Q33 618 76.0 664.0Q119 710 200 710Q281 710 324.0 664.0Q367 618 367 534V166Q367 82 324.0 36.0Q281 -10 200 -10Q119 -10 76.0 36.0Q33 82 33 166ZM257 159V541Q257 610 200 610Q143 610 143 541V159Q143 90 200 90Q257 90 257 159Z" fill="#98DBC6" transform="translate(67.42500000000001,30.0) scale(0.03,-0.03)" />
<path d="M41 700H151V100H332V0H41Z" fill="#98DBC6" transform="translate(79.42500000000001,30.0) scale(0.03,-0.03)" />
<path d="M33 166V534Q33 618 76.0 664.0Q119 710 200 710Q281 710 324.0 664.0Q367 618 367 534V166Q367 82 324.0 36.0Q281 -10 200 -10Q119 -10 76.0 36.0Q33 82 33 166ZM257 159V541Q257 610 200 610Q143 610 143 541V159Q143 90 200 90Q257 90 257 159Z" fill="#98DBC6" transform="translate(89.745,30.0) scale(0.03,-0.03)" />
<path d="M33 166V534Q33 619 75.0 664.5Q117 710 197 710Q277 710 319.0 664.5Q361 619 361 534V474H257V541Q257 610 200 610Q143 610 143 541V158Q143 90 200 90Q257 90 257 158V295H202V395H361V166Q361 81 319.0 35.5Q277 -10 197 -10Q117 -10 75.0 35.5Q33 81 33 166Z" fill="#98DBC6" transform="translate(101.745,30.0) scale(0.03,-0.03)" />
<path d="M41 700H151V0H41Z" fill="#98DBC6" transform="translate(113.47500000000001,30.0) scale(0.03,-0.03)" />
<path d="M41 700H341V600H151V415H302V315H151V100H341V0H41Z" fill="#98DBC6" transform="translate(119.23500000000001,30.0) scale(0.03,-0.03)" />
<path d="M22 166V206H126V158Q126 90 183 90Q211 90 225.5 106.5Q240 123 240 160Q240 204 220.0 237.5Q200 271 146 318Q78 378 51.0 426.5Q24 475 24 536Q24 619 66.0 664.5Q108 710 188 710Q267 710 307.5 664.5Q348 619 348 534V505H244V541Q244 577 230.0 593.5Q216 610 189 610Q134 610 134 543Q134 505 154.5 472.0Q175 439 229 392Q298 332 324.0 283.0Q350 234 350 168Q350 82 307.5 36.0Q265 -10 184 -10Q104 -10 63.0 35.5Q22 81 22 166Z" fill="#98DBC6" transform="translate(130.125,30.0) scale(0.03,-0.03)" />
</svg>
